<svg width="407" height="116" viewBox="0 0 407 116" fill="none" xmlns="http://www.w3.org/2000/svg">
<rect width="140" height="88" transform="translate(269.329) rotate(12.0218)" fill="black"/>
<path d="M295.256 71.9787L272.369 67.1048L274.264 58.2044L279.986 59.4229L285.672 32.7216L279.95 31.5032L281.846 22.6027L304.733 27.4766L302.837 36.377L297.115 35.1585L291.429 61.8598L297.151 63.0783L295.256 71.9787ZM322.588 77.7992L311.144 75.3622L318.726 39.7606L305.375 36.9175L307.271 28.0171L345.415 36.1401L343.52 45.0406L330.169 42.1975L322.588 77.7992ZM335.429 70.5651L346.872 73.002L344.841 82.5382L333.398 80.1012L335.429 70.5651ZM350.701 73.8175L362.145 76.2544L360.114 85.7906L348.671 83.3536L350.701 73.8175ZM365.974 77.0699L377.417 79.5068L375.387 89.043L363.943 86.606L365.974 77.0699Z" fill="white"/>
<rect width="158" height="88" transform="translate(74.9999 27.3442) rotate(-2.66421)" fill="black"/>
<path d="M135.813 88.6087C125.735 90.1622 116.453 91.1363 107.969 91.5311C103.727 91.7285 100.564 90.878 98.4803 88.9794C96.3964 87.0809 95.2558 84.0106 95.0584 79.7685L94.0916 58.991C93.8801 54.4459 94.7442 51.1088 96.684 48.9797C98.6651 46.8053 101.928 45.6123 106.473 45.4008L129.848 44.3131L130.271 53.4033L109.493 54.3701C106.896 54.491 105.658 55.85 105.779 58.4472L106.746 79.2247C106.792 80.2203 107.111 81.008 107.702 81.5878C108.334 82.1223 109.148 82.3664 110.143 82.3201C115.121 82.0885 119.661 81.7688 123.763 81.361L123.325 71.9462L114.885 72.3389L114.522 64.5474L134.65 63.6107L135.813 88.6087ZM178.4 87.6031L142.364 89.2799L140.249 43.8291L176.285 42.1522L176.708 51.2424L152.36 52.3754L152.768 61.1409L171.922 60.2496L172.345 69.3398L153.191 70.2311L153.629 79.6459L177.977 78.5129L178.4 87.6031ZM205.656 86.3348L193.968 86.8786L192.276 50.518L178.641 51.1525L178.218 42.0623L217.176 40.2495L217.599 49.3397L203.964 49.9741L205.656 86.3348Z" fill="white"/>
<rect width="58" height="88" transform="translate(15.1049 2) rotate(9.88359)" fill="black"/>
<path d="M43.699 72.9613L20.6463 68.9447L22.2083 59.9798L27.9715 60.9839L32.6574 34.0891L26.8943 33.0849L28.4563 24.12L51.509 28.1365L49.947 37.1015L44.1838 36.0973L39.4978 62.9922L45.261 63.9963L43.699 72.9613Z" fill="white"/>
</svg>
