<svg width="81" height="80" viewBox="0 0 81 80" fill="none" xmlns="http://www.w3.org/2000/svg">
<path d="M72.1625 0H9.30532C7.03203 0 4.85185 0.903059 3.2444 2.51051C1.63695 4.11797 0.733887 6.29814 0.733887 8.57143L0.733887 71.4286C0.733887 73.7019 1.63695 75.882 3.2444 77.4895C4.85185 79.0969 7.03203 80 9.30532 80H33.8142V52.8018H22.5642V40H33.8142V30.2429C33.8142 19.1446 40.4214 13.0143 50.541 13.0143C55.3875 13.0143 60.4553 13.8786 60.4553 13.8786V24.7714H54.8714C49.3696 24.7714 47.6535 28.1857 47.6535 31.6875V40H59.9357L57.9714 52.8018H47.6535V80H72.1625C74.4357 80 76.6159 79.0969 78.2234 77.4895C79.8308 75.882 80.7339 73.7019 80.7339 71.4286V8.57143C80.7339 6.29814 79.8308 4.11797 78.2234 2.51051C76.6159 0.903059 74.4357 0 72.1625 0Z" fill="white"/>
</svg>
