<svg width="81" height="80" viewBox="0 0 81 80" fill="none" xmlns="http://www.w3.org/2000/svg">
<path d="M80.9243 8.57143V71.4286C80.9243 76.1607 77.085 80 72.3529 80H28.4957C30.2457 77.0714 32.4957 72.8571 33.3886 69.4107C33.9243 67.3571 36.1207 58.9821 36.1207 58.9821C37.5493 61.7143 41.7279 64.0179 46.1743 64.0179C59.4065 64.0179 68.9243 51.8571 68.9243 36.75C68.9243 22.2679 57.1029 11.4286 41.8886 11.4286C22.96 11.4286 12.9243 24.125 12.9243 37.9643C12.9243 44.3929 16.3529 52.3929 21.8172 54.9464C22.6565 55.3393 23.085 55.1607 23.2815 54.3571C23.4243 53.75 24.1743 50.7679 24.4957 49.3929C24.6029 48.9464 24.5493 48.5714 24.1922 48.1429C22.3886 45.9464 20.9243 41.9107 20.9243 38.1429C20.9243 28.4643 28.2457 19.1071 40.7279 19.1071C51.4957 19.1071 59.0493 26.4464 59.0493 36.9464C59.0493 48.8036 53.0672 57.0179 45.2636 57.0179C40.96 57.0179 37.7457 53.4643 38.7636 49.0893C39.9957 43.875 42.3886 38.25 42.3886 34.4821C42.3886 25.0179 28.9065 26.3214 28.9065 38.9464C28.9065 42.8214 30.21 45.4643 30.21 45.4643C24.6029 69.1786 23.7636 69.4821 24.9243 79.8571L25.3172 80H9.49574C4.7636 80 0.924316 76.1607 0.924316 71.4286V8.57143C0.924316 3.83929 4.7636 0 9.49574 0H72.3529C77.085 0 80.9243 3.83929 80.9243 8.57143Z" fill="white"/>
</svg>
