<svg width="81" height="80" viewBox="0 0 81 80" fill="none" xmlns="http://www.w3.org/2000/svg">
<path d="M71.5448 0H8.68764C3.9555 0 0.116211 3.83929 0.116211 8.57143V71.4286C0.116211 76.1607 3.9555 80 8.68764 80H71.5448C76.2769 80 80.1162 76.1607 80.1162 71.4286V8.57143C80.1162 3.83929 76.2769 0 71.5448 0ZM62.8126 28.3571C62.8484 28.8571 62.8484 29.375 62.8484 29.875C62.8484 45.3571 51.0626 63.1964 29.5269 63.1964C22.8841 63.1964 16.7234 61.2679 11.5448 57.9464C12.4912 58.0536 13.4019 58.0893 14.3662 58.0893C19.8484 58.0893 24.8841 56.2321 28.9019 53.0893C23.7591 52.9821 19.4376 49.6071 17.9555 44.9643C19.7591 45.2321 21.3841 45.2321 23.2412 44.75C17.8841 43.6607 13.8662 38.9464 13.8662 33.25V33.1071C15.4198 33.9821 17.2412 34.5179 19.1519 34.5893C17.5455 33.5208 16.2287 32.0712 15.3188 30.3699C14.409 28.6686 13.9345 26.7686 13.9376 24.8393C13.9376 22.6607 14.5091 20.6607 15.5269 18.9286C21.2948 26.0357 29.9555 30.6786 39.6698 31.1786C38.0091 23.2321 43.9555 16.7857 51.0984 16.7857C54.4734 16.7857 57.5091 18.1964 59.6519 20.4821C62.2948 19.9821 64.8305 19 67.0805 17.6607C66.2055 20.375 64.3662 22.6607 61.9376 24.1071C64.2948 23.8571 66.5805 23.1964 68.6876 22.2857C67.0984 24.625 65.0984 26.6964 62.8126 28.3571Z" fill="white"/>
</svg>
