<svg width="59" height="57" viewBox="0 0 59 57" fill="none" xmlns="http://www.w3.org/2000/svg">
<g clip-path="url(#clip0)">
<path d="M36.3103 14.9672C34.5404 14.8865 34.008 14.8723 29.5257 14.8723C25.0434 14.8723 24.5134 14.8889 22.7435 14.9672C18.1893 15.1739 16.0693 17.309 15.8606 21.7835C15.7815 23.5362 15.7623 24.0611 15.7623 28.5C15.7623 32.9389 15.7815 33.4638 15.8606 35.2189C16.0693 39.6815 18.1797 41.8285 22.7435 42.0351C24.511 42.1135 25.0434 42.1325 29.5257 42.1325C34.0104 42.1325 34.5404 42.1159 36.3103 42.0351C40.8645 41.8309 42.9821 39.6886 43.1932 35.2189C43.2723 33.4661 43.2891 32.9389 43.2891 28.5C43.2891 24.0611 43.2723 23.5362 43.1932 21.7835C42.9821 17.3114 40.8597 15.1739 36.3103 14.9672ZM29.5257 37.0381C24.7652 37.0381 20.9041 33.2168 20.9041 28.5C20.9041 23.7856 24.7652 19.9643 29.5257 19.9643C34.2862 19.9643 38.1473 23.7856 38.1473 28.5C38.1473 33.2144 34.2862 37.0381 29.5257 37.0381ZM38.4879 21.622C37.3751 21.622 36.4733 20.729 36.4733 19.627C36.4733 18.525 37.3751 17.632 38.4879 17.632C39.6006 17.632 40.5023 18.525 40.5023 19.627C40.5023 20.7266 39.6006 21.622 38.4879 21.622ZM35.1208 28.5C35.1208 31.5614 32.6146 34.0409 29.5257 34.0409C26.4368 34.0409 23.9307 31.5614 23.9307 28.5C23.9307 25.4386 26.4368 22.9591 29.5257 22.9591C32.6146 22.9591 35.1208 25.4386 35.1208 28.5ZM29.5257 0C13.6327 0 0.74707 12.7609 0.74707 28.5C0.74707 44.2391 13.6327 57 29.5257 57C45.4187 57 58.3043 44.2391 58.3043 28.5C58.3043 12.7609 45.4187 0 29.5257 0ZM46.2125 35.3542C45.9367 41.3986 42.5384 44.7474 36.4494 45.0252C34.6579 45.106 34.0847 45.125 29.5257 45.125C24.9667 45.125 24.3959 45.106 22.6044 45.0252C16.5034 44.7474 13.1195 41.3939 12.8389 35.3542C12.7574 33.5825 12.7382 33.0149 12.7382 28.5C12.7382 23.9851 12.7574 23.4199 12.8389 21.6458C13.1195 15.6038 16.5058 12.2526 22.6044 11.9771C24.3959 11.894 24.9667 11.875 29.5257 11.875C34.0847 11.875 34.6579 11.894 36.4494 11.9771C42.5528 12.255 45.9391 15.6156 46.2125 21.6458C46.2941 23.4199 46.3132 23.9851 46.3132 28.5C46.3132 33.0149 46.2941 33.5825 46.2125 35.3542Z" fill="white"/>
</g>
<defs>
<clipPath id="clip0">
<rect x="0.74707" width="57.5573" height="57" fill="white"/>
</clipPath>
</defs>
</svg>
