<svg width="50" height="50" xmlns="http://www.w3.org/2000/svg">

 <g>
  <title>background</title>
  <rect fill="none" id="canvas_background" height="402" width="582" y="-1" x="-1"/>
 </g>
 <g>
  <title>Layer 1</title>
  <path id="Dialog" fill="#ffffff" d="m29.9,35.4l-4.9,0l-2.4,3.2l-3.2,0l0,-3.2l-5.7,0l0,-16.9l1.6,-4.2l21.1,0l0,14.6l-6.5,6.5zm4,-7.3l0,-11.3l-17,0l0,15.4l4.9,0l0,3.2l3.2,-3.2l4.9,0l4,-4.1z"/>
  <rect y="20.8" x="27.4" width="2.4" id="_x7C_" height="6.5" fill="#ffffff"/>
  <rect y="20.8" x="22.6" width="2.4" id="_x7C__2_" height="6.5" fill="#ffffff"/>
  <path id="svg_1" fill="#ffffff" d="m25,1c-13.3,0 -24,10.7 -24,24s10.7,24 24,24s24,-10.7 24,-24s-10.7,-24 -24,-24zm0,43c-10.5,0 -19,-8.5 -19,-19s8.5,-19 19,-19s19,8.5 19,19s-8.5,19 -19,19z"/>
 </g>
</svg>