<svg width="58" height="57" viewBox="0 0 58 57" fill="none" xmlns="http://www.w3.org/2000/svg">
<path d="M24.87 42.2892L29.1292 38.0713H37.1465L42.1587 33.1075V17.2283H18.1046V38.0713H24.87V42.2892ZM34.1415 22.9354H37.1489V31.6113H34.1415V22.9354ZM26.1219 22.9354H29.1292V31.6113H26.1219V22.9354ZM29.1292 0C13.2362 0 0.350586 12.7609 0.350586 28.5C0.350586 44.2391 13.2362 57 29.1292 57C45.0222 57 57.9079 44.2391 57.9079 28.5C57.9079 12.7609 45.0222 0 29.1292 0V0ZM45.1661 34.5966L36.3958 43.282H29.8823L25.6206 47.5H21.112V43.282H13.0923V19.9571L15.3491 14.25H45.1661V34.5966Z" fill="white"/>
</svg>
